<svg fill="none" height="128" viewBox="0 0 128 128" width="128" xmlns="http://www.w3.org/2000/svg"><path d="m0 0h128v128h-128z" fill="#3e284c"/><path d="m31.1875 52.875c-.375-2.3125-1-14.375-1.3125-16.8125-.2164-1.6875.85-4.6875.75-5.6875-.125-1.25 1.4375-9.125 3.9375-13.375s7.8125-7.75002 9.6875-8.68752 6.75-2.6875 11.9375-2.3125 13.0625 3 19.625 8.56252c5.25 4.45 7.0625 11.0625 7.3125 13.8125.1875 1.5.5625 5.175.5625 7.875 1-1.05 2.375-1.0625 2.9375-.6875s1.35 1.7 1.75 3.5.1667 4.6666 0 5.875l-.5 3.3125c-.3333 1.2083-1.5 4.175-3.5 6.375s-3.25 2.5833-3.625 2.5l.75 14.75c.6667.9583 2.3 3.225 3.5 4.625s4.125 3 5.4375 3.625l4.6875 2.0625-.875 5.6875-13.5 13.812-27 11-11.25-5.5-1.625-8.7495 4.875-11.9375c-.1458-.7084-.525-2.875-.875-5.875-2.5-.6-3.7083-2.5834-4-3.5l-1.0625-2.9375-3.4375-4.4375c-.5208-.8542-1.65-2.8-2-3.75s-1.1875-3.3542-1.5625-4.4375c0 0-1.25-6.375-1.625-8.6875z" fill="#e1d4e8"/><g fill="#8c5dab"><path d="m45.3436 84.1259c-6.25 4.5-20.3436 10.9991-20.3436 10.9991 3.75 4.25 5.875 26.5 25 26.5 27.5 0 51.625-30.875 64-29.25 0 0-11.5-7.4375-12.375-8.375s-3.5-1.375-3.5-1.375l-9-3.125s4.5 2.5625 4.5 3.375c-5.625 7.125-30.125 27.875-39.25 27.875s-12.25-6-11.5-11.875 3.0625-11.3125 3.0625-11.3125z"/><path clip-rule="evenodd" d="m80.8125 35.4375c.75.15 1.6458 1.1458 2 1.625-.0833.1458-.3625.525-.8125.875-.45-.75-.9792-1.0208-1.1875-1.0625-4.3333.0625-13.175.1875-13.875.1875s-1.4375.9375-1.6875 1.5625-.1875 2.25-.1875 2.25.1875 2.5-1 4.25-6.125 2-7.6875 2.0625-4.375-.1875-5.75-.5-2.4375-1.5625-2.875-2.25-.5752-1.1296-.9709-2.0099c-.2844-.6327-.57-1.2681-.7791-1.6776-.1458-.2917-.5375-.9375-.9375-.9375-.2301 0-.6854.053-1.1768.1102-.5762.067-1.2021.1398-1.5732.1398-.55 0-.8125.875-.875 1.3125-.2083 1.25-.65 3.875-.75 4.375s-.25 1.0625-.5625 1.4375-1.5625 1.1875-3.875 1.6875-6.375.375-7.625.3125c-1.1909-.0595-1.8712-.7431-2.4733-1.348-1.0633-1.0684-1.4037-2.9344-1.8562-4.3254-.0204-.0627-.0358-.1099-.0455-.1391-.125-.375-.5625-1.25-.9375-1.625-.3-.3-.875-.5417-1.125-.625v-1.9375c1.8333-.5625 6.1375-1.7375 8.6875-1.9375 3.1875-.25 7.375.125 8.5.375.9.2 2 .9583 2.4375 1.3125l3.75-.5c.1667-.3333.9875-1.2625 1.4375-1.5625.5625-.375 3.9375-1.625 8.9375-2.0625 4-.35 8.5-.1458 10.25 0 4.5625.1458 13.875.475 14.625.625zm-20 .0625c-1.625-.25-5.8125.125-7.25.375s-4.125.8125-5 1.1875-1.4449.9485-1.7574 1.386-.059 1.3453.066 1.7828.9201 2.1519 1.2326 2.8394 1.2713 2.4293 2.6463 2.8043 3.3125.5625 5 .5625c1.6786 0 3.0253-.3177 4.6796-.5935 1.5-.25 2.5221-.8286 2.9212-1.2425.3992-.414.6109-1.5154.7117-2.3515.1008-.836.125-3.3125.125-4.4375s-1.75-2.0625-3.375-2.3125zm-28.5063 2.5023c-2.85.05-6.0562 1.0602-6.4937 1.3102-.0859.0491-.1617.1136-.2296.1883l4.5846.0051.1045 1.4951-5.2485.1443c-.003.7493.1899 1.9069.2817 2.4578.125.75.8676 3.1912 1.9926 4.1287s3.3807.8251 6.1932.7001 5.6479-1.1794 6.0854-1.8669.8351-3.8914.8976-4.8289.0885-1.3611-.599-2.5486-4.0063-1.2477-7.5688-1.1852z" fill-rule="evenodd"/></g></svg>